<?xml version="1.0" encoding="UTF-8" standalone="no"?><!DOCTYPE svg PUBLIC "-//W3C//DTD SVG 1.1//EN" "http://www.w3.org/Graphics/SVG/1.1/DTD/svg11.dtd"><!-- Generated by graphviz version 2.40.1 (20161225.0304)
 --><!-- Title: %0 Pages: 1 --><svg xmlns="http://www.w3.org/2000/svg" xmlns:xlink="http://www.w3.org/1999/xlink" width="923pt" height="1110pt" viewBox="0.00 0.00 923.24 1109.60">
<g id="graph0" class="graph" transform="scale(1 1) rotate(0) translate(4 1105.6)">
<title>%0</title>
<polygon fill="#ffffff" stroke="transparent" points="-4,4 -4,-1105.6 919.2422,-1105.6 919.2422,4 -4,4"/>
<!-- host -->
<g id="node1" class="node">
<title>host</title>
<ellipse fill="none" stroke="#000000" cx="458.907" cy="-1083.6" rx="27.2661" ry="18"/>
<text text-anchor="middle" x="458.907" y="-1079.4" font-family="Times,serif" font-size="14.00" fill="#000000">host</text>
</g>
<!-- 1 -->
<g id="node2" class="node">
<title>1</title>
<ellipse fill="none" stroke="#000000" cx="56.907" cy="-994.8" rx="56.8141" ry="18"/>
<text text-anchor="middle" x="56.907" y="-990.6" font-family="Times,serif" font-size="14.00" fill="#000000">192.168.1.1</text>
</g>
<!-- host&#45;&gt;1 -->
<g id="edge1" class="edge">
<title>host-&gt;1</title>
<path fill="none" stroke="#000000" d="M431.7704,-1082.6661C349.336,-1079.6065 105.7487,-1068.8401 77.5718,-1047.6 69.6056,-1041.595 64.7081,-1032.0698 61.6981,-1022.7526"/>
<polygon fill="#000000" stroke="#000000" points="65.0371,-1021.687 59.1169,-1012.9006 58.2657,-1023.4612 65.0371,-1021.687"/>
<text text-anchor="middle" x="107.0746" y="-1035" font-family="Times,serif" font-size="14.00" fill="#000000">  2.498 ms</text>
</g>
<!-- 2 -->
<g id="node3" class="node">
<title>2</title>
<ellipse fill="none" stroke="#000000" cx="145.907" cy="-906" rx="61.9718" ry="18"/>
<text text-anchor="middle" x="145.907" y="-901.8" font-family="Times,serif" font-size="14.00" fill="#000000">151.6.142.56</text>
</g>
<!-- host&#45;&gt;2 -->
<g id="edge2" class="edge">
<title>host-&gt;2</title>
<path fill="none" stroke="#000000" stroke-dasharray="1,5" d="M431.7816,-1082.858C386.8661,-1080.8937 294.7728,-1073.7295 221.907,-1047.6 193.4893,-1037.4095 180.5787,-1037.7436 163.5718,-1012.8 147.8516,-989.7436 144.4246,-957.5038 144.3188,-934.4903"/>
<polygon fill="#000000" stroke="#000000" points="147.821,-934.3788 144.4829,-924.3236 140.8219,-934.2658 147.821,-934.3788"/>
<text text-anchor="middle" x="192.0746" y="-990.6" font-family="Times,serif" font-size="14.00" fill="#000000">  8.388 ms</text>
</g>
<!-- 3 -->
<g id="node4" class="node">
<title>3</title>
<ellipse fill="none" stroke="#000000" cx="213.907" cy="-817.2" rx="56.8141" ry="18"/>
<text text-anchor="middle" x="213.907" y="-813" font-family="Times,serif" font-size="14.00" fill="#000000">151.6.57.36</text>
</g>
<!-- host&#45;&gt;3 -->
<g id="edge4" class="edge">
<title>host-&gt;3</title>
<path fill="none" stroke="#000000" stroke-dasharray="1,5" d="M432.1468,-1079.7665C393.1719,-1073.8019 323.1214,-1061.5275 301.907,-1047.6 260.9471,-1020.7094 255.026,-1004.1901 236.5718,-958.8 218.7257,-914.9054 230.3122,-899.8323 221.907,-853.2 221.4499,-850.6639 220.9387,-848.0353 220.4019,-845.4061"/>
<polygon fill="#000000" stroke="#000000" points="223.7867,-844.4978 218.2636,-835.4564 216.9429,-845.9686 223.7867,-844.4978"/>
<text text-anchor="middle" x="268.5746" y="-946.2" font-family="Times,serif" font-size="14.00" fill="#000000">  14.924 ms</text>
</g>
<!-- 4 -->
<g id="node5" class="node">
<title>4</title>
<ellipse fill="none" stroke="#000000" cx="269.907" cy="-728.4" rx="52.1572" ry="18"/>
<text text-anchor="middle" x="269.907" y="-724.2" font-family="Times,serif" font-size="14.00" fill="#000000">151.6.7.44</text>
</g>
<!-- host&#45;&gt;4 -->
<g id="edge6" class="edge">
<title>host-&gt;4</title>
<path fill="none" stroke="#000000" stroke-dasharray="1,5" d="M433.4098,-1077.0648C416.0748,-1071.5606 393.5381,-1062.2021 377.907,-1047.6 281.0975,-957.1633 321.9273,-891.6021 284.907,-764.4 284.091,-761.5964 283.1243,-758.7158 282.0808,-755.8636"/>
<polygon fill="#000000" stroke="#000000" points="285.2809,-754.4383 278.3445,-746.4297 278.7727,-757.0159 285.2809,-754.4383"/>
<text text-anchor="middle" x="341.5746" y="-901.8" font-family="Times,serif" font-size="14.00" fill="#000000">  11.450 ms</text>
</g>
<!-- 5 -->
<g id="node6" class="node">
<title>5</title>
<ellipse fill="none" stroke="#000000" cx="310.907" cy="-639.6" rx="56.8141" ry="18"/>
<text text-anchor="middle" x="310.907" y="-635.4" font-family="Times,serif" font-size="14.00" fill="#000000">151.6.7.239</text>
</g>
<!-- host&#45;&gt;5 -->
<g id="edge8" class="edge">
<title>host-&gt;5</title>
<path fill="none" stroke="#000000" stroke-dasharray="1,5" d="M438.8401,-1071.0465C430.5888,-1064.9248 421.6415,-1056.8749 415.907,-1047.6 377.5612,-985.5809 419.7446,-947.7193 377.907,-888 369.5606,-876.0863 357.9491,-882.5369 350.5718,-870 306.6288,-795.3243 364.8953,-757.2524 335.907,-675.6 334.7256,-672.2723 333.151,-668.9681 331.3646,-665.7882"/>
<polygon fill="#000000" stroke="#000000" points="334.2439,-663.7937 325.9197,-657.2394 328.3397,-667.5542 334.2439,-663.7937"/>
<text text-anchor="middle" x="382.5746" y="-857.4" font-family="Times,serif" font-size="14.00" fill="#000000">  10.432 ms</text>
</g>
<!-- 6 -->
<g id="node7" class="node">
<title>6</title>
<ellipse fill="none" stroke="#000000" cx="356.907" cy="-550.8" rx="61.9718" ry="18"/>
<text text-anchor="middle" x="356.907" y="-546.6" font-family="Times,serif" font-size="14.00" fill="#000000">80.81.194.26</text>
</g>
<!-- host&#45;&gt;6 -->
<g id="edge10" class="edge">
<title>host-&gt;6</title>
<path fill="none" stroke="#000000" stroke-dasharray="1,5" d="M456.4926,-1065.4643C451.0667,-1026.2929 436.7332,-931.0293 415.907,-853.2 413.7147,-845.0072 411.8911,-843.3577 409.5718,-835.2 401.8078,-807.8917 395.907,-801.1905 395.907,-772.8 395.907,-772.8 395.907,-772.8 395.907,-639.6 395.907,-615.3224 392.0957,-608.8361 381.907,-586.8 380.3462,-583.4243 378.4702,-580.0254 376.4561,-576.7352"/>
<polygon fill="#000000" stroke="#000000" points="379.3597,-574.7807 370.9242,-568.3703 373.5209,-578.642 379.3597,-574.7807"/>
<text text-anchor="middle" x="441.5746" y="-813" font-family="Times,serif" font-size="14.00" fill="#000000">  25.386 ms</text>
</g>
<!-- 7 -->
<g id="node8" class="node">
<title>7</title>
<ellipse fill="none" stroke="#000000" cx="414.907" cy="-462" rx="66.6279" ry="18"/>
<text text-anchor="middle" x="414.907" y="-457.8" font-family="Times,serif" font-size="14.00" fill="#000000">64.125.30.254</text>
</g>
<!-- host&#45;&gt;7 -->
<g id="edge12" class="edge">
<title>host-&gt;7</title>
<path fill="none" stroke="#000000" stroke-dasharray="1,5" d="M468.3992,-1066.4872C477.1882,-1049.0147 488.907,-1020.8363 488.907,-994.8 488.907,-994.8 488.907,-994.8 488.907,-861.6 488.907,-833.1772 491.0632,-822.5844 474.907,-799.2 466.6385,-787.2322 454.5525,-793.9619 447.5718,-781.2 436.3094,-760.6104 446.907,-751.8685 446.907,-728.4 446.907,-728.4 446.907,-728.4 446.907,-550.8 446.907,-529.2932 438.4966,-506.4991 430.2992,-489.3901"/>
<polygon fill="#000000" stroke="#000000" points="433.1996,-487.3697 425.5625,-480.0262 426.9533,-490.5294 433.1996,-487.3697"/>
<text text-anchor="middle" x="479.5746" y="-768.6" font-family="Times,serif" font-size="14.00" fill="#000000">  25.691 ms</text>
</g>
<!-- 8 -->
<g id="node9" class="node">
<title>8</title>
<ellipse fill="none" stroke="#000000" cx="509.907" cy="-373.2" rx="61.9718" ry="18"/>
<text text-anchor="middle" x="509.907" y="-369" font-family="Times,serif" font-size="14.00" fill="#000000">64.125.29.65</text>
</g>
<!-- host&#45;&gt;8 -->
<g id="edge14" class="edge">
<title>host-&gt;8</title>
<path fill="none" stroke="#000000" stroke-dasharray="1,5" d="M477.8488,-1070.6223C497.9694,-1055.1363 526.907,-1027.2275 526.907,-994.8 526.907,-994.8 526.907,-994.8 526.907,-817.2 526.907,-757.5198 509.907,-743.6802 509.907,-684 509.907,-684 509.907,-684 509.907,-462 509.907,-441.7006 509.907,-418.791 509.907,-401.3264"/>
<polygon fill="#000000" stroke="#000000" points="513.4071,-401.2279 509.907,-391.2279 506.4071,-401.2279 513.4071,-401.2279"/>
<text text-anchor="middle" x="549.5746" y="-724.2" font-family="Times,serif" font-size="14.00" fill="#000000">  33.881 ms</text>
</g>
<!-- 9 -->
<g id="node10" class="node">
<title>9</title>
<ellipse fill="none" stroke="#000000" cx="590.907" cy="-284.4" rx="61.9718" ry="18"/>
<text text-anchor="middle" x="590.907" y="-280.2" font-family="Times,serif" font-size="14.00" fill="#000000">82.98.193.29</text>
</g>
<!-- host&#45;&gt;9 -->
<g id="edge16" class="edge">
<title>host-&gt;9</title>
<path fill="none" stroke="#000000" stroke-dasharray="1,5" d="M485.6548,-1079.5017C527.2985,-1071.4339 602.907,-1049.2838 602.907,-994.8 602.907,-994.8 602.907,-994.8 602.907,-772.8 602.907,-713.5933 600.907,-698.8067 600.907,-639.6 600.907,-639.6 600.907,-639.6 600.907,-373.2 600.907,-352.9008 598.2947,-330.1544 595.7404,-312.7651"/>
<polygon fill="#000000" stroke="#000000" points="599.1709,-312.0463 594.1814,-302.6999 592.2534,-313.1179 599.1709,-312.0463"/>
<text text-anchor="middle" x="633.5746" y="-679.8" font-family="Times,serif" font-size="14.00" fill="#000000">  31.473 ms</text>
</g>
<!-- 10 -->
<g id="node11" class="node">
<title>10</title>
<ellipse fill="none" stroke="#ff0000" cx="680.907" cy="-195.6" rx="27" ry="18"/>
<text text-anchor="middle" x="680.907" y="-191.4" font-family="Times,serif" font-size="14.00" fill="#000000">*</text>
</g>
<!-- host&#45;&gt;10 -->
<g id="edge18" class="edge">
<title>host-&gt;10</title>
<path fill="none" stroke="#000000" stroke-dasharray="1,5" d="M485.2451,-1078.8416C544.0506,-1067.4684 680.907,-1036.5182 680.907,-994.8 680.907,-994.8 680.907,-994.8 680.907,-284.4 680.907,-264.1006 680.907,-241.191 680.907,-223.7264"/>
<polygon fill="#000000" stroke="#000000" points="684.4071,-223.6279 680.907,-213.6279 677.4071,-223.6279 684.4071,-223.6279"/>
<text text-anchor="middle" x="712.4049" y="-635.4" font-family="Times,serif" font-size="14.00" fill="#000000">  -1.000 ms</text>
</g>
<!-- 11 -->
<g id="node12" class="node">
<title>11</title>
<ellipse fill="none" stroke="#ff0000" cx="762.907" cy="-106.8" rx="27" ry="18"/>
<text text-anchor="middle" x="762.907" y="-102.6" font-family="Times,serif" font-size="14.00" fill="#000000">*</text>
</g>
<!-- host&#45;&gt;11 -->
<g id="edge20" class="edge">
<title>host-&gt;11</title>
<path fill="none" stroke="#000000" stroke-dasharray="1,5" d="M486.1361,-1081.7314C562.2871,-1075.765 771.907,-1053.9679 771.907,-994.8 771.907,-994.8 771.907,-994.8 771.907,-195.6 771.907,-175.1966 769.5261,-152.2899 767.2134,-134.8528"/>
<polygon fill="#000000" stroke="#000000" points="770.6553,-134.1928 765.8042,-124.7738 763.7227,-135.1622 770.6553,-134.1928"/>
<text text-anchor="middle" x="803.4049" y="-591" font-family="Times,serif" font-size="14.00" fill="#000000">  -1.000 ms</text>
</g>
<!-- 12 -->
<g id="node13" class="node">
<title>12</title>
<ellipse fill="none" stroke="#000000" cx="805.907" cy="-18" rx="61.9718" ry="18"/>
<text text-anchor="middle" x="805.907" y="-13.8" font-family="Times,serif" font-size="14.00" fill="#000000">140.82.121.4</text>
</g>
<!-- host&#45;&gt;12 -->
<g id="edge22" class="edge">
<title>host-&gt;12</title>
<path fill="none" stroke="#000000" stroke-dasharray="1,5" d="M486.0961,-1082.7501C536.227,-1080.5949 646.2069,-1073.112 734.907,-1047.6 788.9566,-1032.0542 849.907,-1051.0408 849.907,-994.8 849.907,-994.8 849.907,-994.8 849.907,-106.8 849.907,-82.5224 847.0524,-75.568 835.907,-54 834.0687,-50.4426 831.8283,-46.9224 829.4085,-43.5566"/>
<polygon fill="#000000" stroke="#000000" points="832.0748,-41.2847 823.1503,-35.5748 826.5661,-45.6039 832.0748,-41.2847"/>
<text text-anchor="middle" x="882.5746" y="-546.6" font-family="Times,serif" font-size="14.00" fill="#000000">  26.306 ms</text>
</g>
<!-- 1&#45;&gt;2 -->
<g id="edge3" class="edge">
<title>1-&gt;2</title>
<path fill="none" stroke="#000000" d="M57.7935,-976.6774C59.1886,-965.5913 62.5641,-951.7195 70.5718,-942 76.7971,-934.4439 84.9812,-928.3691 93.6572,-923.5198"/>
<polygon fill="#000000" stroke="#000000" points="95.4637,-926.5287 102.8152,-918.8993 92.3105,-920.2791 95.4637,-926.5287"/>
<text text-anchor="middle" x="103.5746" y="-946.2" font-family="Times,serif" font-size="14.00" fill="#000000">  10.886 ms</text>
</g>
<!-- 2&#45;&gt;3 -->
<g id="edge5" class="edge">
<title>2-&gt;3</title>
<path fill="none" stroke="#000000" d="M146.0498,-887.985C146.9376,-877.0758 149.5537,-863.3553 156.5718,-853.2 160.7064,-847.2172 166.1918,-842.0234 172.1334,-837.5867"/>
<polygon fill="#000000" stroke="#000000" points="174.0905,-840.4885 180.4345,-832.003 170.1835,-834.6802 174.0905,-840.4885"/>
<text text-anchor="middle" x="188.5746" y="-857.4" font-family="Times,serif" font-size="14.00" fill="#000000">  25.810 ms</text>
</g>
<!-- 3&#45;&gt;4 -->
<g id="edge7" class="edge">
<title>3-&gt;4</title>
<path fill="none" stroke="#000000" d="M212.2817,-798.9408C212.163,-788.2044 213.5294,-774.7504 219.5718,-764.4 222.842,-758.7982 227.3695,-753.8363 232.3791,-749.524"/>
<polygon fill="#000000" stroke="#000000" points="234.7208,-752.1394 240.5371,-743.2838 230.4679,-746.5794 234.7208,-752.1394"/>
<text text-anchor="middle" x="251.5746" y="-768.6" font-family="Times,serif" font-size="14.00" fill="#000000">  37.260 ms</text>
</g>
<!-- 4&#45;&gt;5 -->
<g id="edge9" class="edge">
<title>4-&gt;5</title>
<path fill="none" stroke="#000000" d="M266.5918,-710.0092C265.5421,-699.4789 265.7083,-686.2789 270.5718,-675.6 272.6045,-671.1368 275.4876,-666.9959 278.7895,-663.2315"/>
<polygon fill="#000000" stroke="#000000" points="281.3895,-665.5821 286.0166,-656.051 276.4558,-660.6163 281.3895,-665.5821"/>
<text text-anchor="middle" x="302.5746" y="-679.8" font-family="Times,serif" font-size="14.00" fill="#000000">  47.692 ms</text>
</g>
<!-- 5&#45;&gt;6 -->
<g id="edge11" class="edge">
<title>5-&gt;6</title>
<path fill="none" stroke="#000000" d="M309.6934,-621.5665C309.7206,-610.9101 311.0959,-597.4609 316.5718,-586.8 318.8125,-582.4376 321.8189,-578.3562 325.1849,-574.623"/>
<polygon fill="#000000" stroke="#000000" points="327.7862,-576.9739 332.4694,-567.4703 322.8819,-571.9792 327.7862,-576.9739"/>
<text text-anchor="middle" x="348.5746" y="-591" font-family="Times,serif" font-size="14.00" fill="#000000">  73.077 ms</text>
</g>
<!-- 6&#45;&gt;7 -->
<g id="edge13" class="edge">
<title>6-&gt;7</title>
<path fill="none" stroke="#000000" d="M357.4217,-532.5047C358.4653,-521.7555 361.1146,-508.3007 367.5718,-498 370.5193,-493.298 374.3158,-488.9835 378.4749,-485.101"/>
<polygon fill="#000000" stroke="#000000" points="380.8301,-487.6938 386.2476,-478.5888 376.3346,-482.3282 380.8301,-487.6938"/>
<text text-anchor="middle" x="399.5746" y="-502.2" font-family="Times,serif" font-size="14.00" fill="#000000">  98.768 ms</text>
</g>
<!-- 7&#45;&gt;8 -->
<g id="edge15" class="edge">
<title>7-&gt;8</title>
<path fill="none" stroke="#000000" d="M413.6777,-443.857C413.8681,-432.7629 415.9074,-418.8901 423.5718,-409.2 430.7403,-400.1368 440.5939,-393.3306 451.0861,-388.2269"/>
<polygon fill="#000000" stroke="#000000" points="452.6461,-391.3652 460.4195,-384.1662 449.8534,-384.9464 452.6461,-391.3652"/>
<text text-anchor="middle" x="459.0746" y="-413.4" font-family="Times,serif" font-size="14.00" fill="#000000">  132.650 ms</text>
</g>
<!-- 8&#45;&gt;9 -->
<g id="edge17" class="edge">
<title>8-&gt;9</title>
<path fill="none" stroke="#000000" d="M507.2383,-355.0493C506.5988,-344.089 507.6219,-330.3625 514.5718,-320.4 520.1094,-312.462 527.8715,-306.2237 536.3415,-301.3364"/>
<polygon fill="#000000" stroke="#000000" points="538.0553,-304.391 545.3608,-296.7177 534.8646,-298.1605 538.0553,-304.391"/>
<text text-anchor="middle" x="550.0746" y="-324.6" font-family="Times,serif" font-size="14.00" fill="#000000">  164.123 ms</text>
</g>
<!-- 9&#45;&gt;10 -->
<g id="edge19" class="edge">
<title>9-&gt;10</title>
<path fill="none" stroke="#000000" d="M587.6757,-266.1728C586.7462,-255.1838 587.4995,-241.4538 594.5718,-231.6 606.1029,-215.5336 626.1998,-206.6063 644.1037,-201.6617"/>
<polygon fill="#000000" stroke="#000000" points="645.1437,-205.0108 654.0326,-199.2455 643.4885,-198.2093 645.1437,-205.0108"/>
<text text-anchor="middle" x="630.0746" y="-235.8" font-family="Times,serif" font-size="14.00" fill="#000000">  164.123 ms</text>
</g>
<!-- 10&#45;&gt;11 -->
<g id="edge21" class="edge">
<title>10-&gt;11</title>
<path fill="none" stroke="#000000" d="M678.2208,-177.437C677.5747,-166.4722 678.597,-152.7451 685.5718,-142.8 695.268,-128.9747 711.6688,-120.3232 726.8782,-114.9795"/>
<polygon fill="#000000" stroke="#000000" points="728.1243,-118.2568 736.6185,-111.9243 726.0293,-111.5776 728.1243,-118.2568"/>
<text text-anchor="middle" x="721.0746" y="-147" font-family="Times,serif" font-size="14.00" fill="#000000">  164.123 ms</text>
</g>
<!-- 11&#45;&gt;12 -->
<g id="edge23" class="edge">
<title>11-&gt;12</title>
<path fill="none" stroke="#000000" d="M759.5477,-88.8572C758.4105,-78.233 758.5027,-64.7858 763.5718,-54 765.6672,-49.5414 768.6111,-45.4291 771.9815,-41.7025"/>
<polygon fill="#000000" stroke="#000000" points="774.5793,-44.0602 779.3638,-34.6071 769.7286,-39.0133 774.5793,-44.0602"/>
<text text-anchor="middle" x="799.0746" y="-58.2" font-family="Times,serif" font-size="14.00" fill="#000000">  190.428 ms</text>
</g>
</g>
</svg>