<?xml version="1.0" encoding="UTF-8" standalone="no"?><!DOCTYPE svg PUBLIC "-//W3C//DTD SVG 1.1//EN" "http://www.w3.org/Graphics/SVG/1.1/DTD/svg11.dtd"><!-- Generated by graphviz version 2.40.1 (20161225.0304)
 --><!-- Title: %0 Pages: 1 --><svg xmlns="http://www.w3.org/2000/svg" xmlns:xlink="http://www.w3.org/1999/xlink" width="919pt" height="1110pt" viewBox="0.00 0.00 919.24 1109.60">
<g id="graph0" class="graph" transform="scale(1 1) rotate(0) translate(4 1105.6)">
<title>%0</title>
<polygon fill="#161b22" stroke="transparent" points="-4,4 -4,-1105.6 915.2422,-1105.6 915.2422,4 -4,4"/>
<!-- host -->
<g id="node1" class="node">
<title>host</title>
<ellipse fill="none" stroke="#dddddd" cx="454.907" cy="-1083.6" rx="27.2661" ry="18"/>
<text text-anchor="middle" x="454.907" y="-1079.4" font-family="Times,serif" font-size="14.00" fill="#dddddd">host</text>
</g>
<!-- 1 -->
<g id="node2" class="node">
<title>1</title>
<ellipse fill="none" stroke="#dddddd" cx="56.907" cy="-994.8" rx="56.8141" ry="18"/>
<text text-anchor="middle" x="56.907" y="-990.6" font-family="Times,serif" font-size="14.00" fill="#dddddd">192.168.1.1</text>
</g>
<!-- host&#45;&gt;1 -->
<g id="edge1" class="edge">
<title>host-&gt;1</title>
<path fill="none" stroke="#dddddd" d="M427.7348,-1082.8345C344.6015,-1080.2502 97.6763,-1070.6846 70.5718,-1047.6 63.3965,-1041.4889 59.7351,-1032.1475 57.9399,-1023.0118"/>
<polygon fill="#dddddd" stroke="#dddddd" points="61.393,-1022.4257 56.6182,-1012.9679 54.4529,-1023.3391 61.393,-1022.4257"/>
<text text-anchor="middle" x="103.5746" y="-1035" font-family="Times,serif" font-size="14.00" fill="#dddddd">  10.854 ms</text>
</g>
<!-- 2 -->
<g id="node3" class="node">
<title>2</title>
<ellipse fill="none" stroke="#dddddd" cx="145.907" cy="-906" rx="61.9718" ry="18"/>
<text text-anchor="middle" x="145.907" y="-901.8" font-family="Times,serif" font-size="14.00" fill="#dddddd">151.6.142.56</text>
</g>
<!-- host&#45;&gt;2 -->
<g id="edge2" class="edge">
<title>host-&gt;2</title>
<path fill="none" stroke="#dddddd" stroke-dasharray="1,5" d="M427.5221,-1082.7479C383.1064,-1080.6287 293.153,-1073.2511 221.907,-1047.6 193.5023,-1037.3733 180.5787,-1037.7436 163.5718,-1012.8 147.8516,-989.7436 144.4246,-957.5038 144.3188,-934.4903"/>
<polygon fill="#dddddd" stroke="#dddddd" points="147.821,-934.3788 144.4829,-924.3236 140.8219,-934.2658 147.821,-934.3788"/>
<text text-anchor="middle" x="192.0746" y="-990.6" font-family="Times,serif" font-size="14.00" fill="#dddddd">  6.575 ms</text>
</g>
<!-- 3 -->
<g id="node4" class="node">
<title>3</title>
<ellipse fill="none" stroke="#dddddd" cx="209.907" cy="-817.2" rx="56.8141" ry="18"/>
<text text-anchor="middle" x="209.907" y="-813" font-family="Times,serif" font-size="14.00" fill="#dddddd">151.6.57.36</text>
</g>
<!-- host&#45;&gt;3 -->
<g id="edge4" class="edge">
<title>host-&gt;3</title>
<path fill="none" stroke="#dddddd" stroke-dasharray="1,5" d="M428.1961,-1080.058C388.488,-1074.3863 316.2698,-1062.3864 294.907,-1047.6 256.0795,-1020.7254 253.1892,-1003.0004 236.5718,-958.8 219.8971,-914.4472 232.7034,-899.3374 221.907,-853.2 221.2812,-850.5258 220.541,-847.768 219.7403,-845.0246"/>
<polygon fill="#dddddd" stroke="#dddddd" points="223.0256,-843.8052 216.6712,-835.3275 216.3519,-845.9175 223.0256,-843.8052"/>
<text text-anchor="middle" x="265.0746" y="-946.2" font-family="Times,serif" font-size="14.00" fill="#dddddd">  6.551 ms</text>
</g>
<!-- 4 -->
<g id="node5" class="node">
<title>4</title>
<ellipse fill="none" stroke="#dddddd" cx="265.907" cy="-728.4" rx="52.1572" ry="18"/>
<text text-anchor="middle" x="265.907" y="-724.2" font-family="Times,serif" font-size="14.00" fill="#dddddd">151.6.6.68</text>
</g>
<!-- host&#45;&gt;4 -->
<g id="edge6" class="edge">
<title>host-&gt;4</title>
<path fill="none" stroke="#dddddd" stroke-dasharray="1,5" d="M429.4098,-1077.0648C412.0748,-1071.5606 389.5381,-1062.2021 373.907,-1047.6 277.0975,-957.1633 317.9273,-891.6021 280.907,-764.4 280.091,-761.5964 279.1243,-758.7158 278.0808,-755.8636"/>
<polygon fill="#dddddd" stroke="#dddddd" points="281.2809,-754.4383 274.3445,-746.4297 274.7727,-757.0159 281.2809,-754.4383"/>
<text text-anchor="middle" x="337.5746" y="-901.8" font-family="Times,serif" font-size="14.00" fill="#dddddd">  10.003 ms</text>
</g>
<!-- 5 -->
<g id="node6" class="node">
<title>5</title>
<ellipse fill="none" stroke="#dddddd" cx="306.907" cy="-639.6" rx="56.8141" ry="18"/>
<text text-anchor="middle" x="306.907" y="-635.4" font-family="Times,serif" font-size="14.00" fill="#dddddd">151.6.7.181</text>
</g>
<!-- host&#45;&gt;5 -->
<g id="edge8" class="edge">
<title>host-&gt;5</title>
<path fill="none" stroke="#dddddd" stroke-dasharray="1,5" d="M434.8401,-1071.0465C426.5888,-1064.9248 417.6415,-1056.8749 411.907,-1047.6 373.5612,-985.5809 415.7446,-947.7193 373.907,-888 365.5606,-876.0863 353.9491,-882.5369 346.5718,-870 302.6288,-795.3243 360.8953,-757.2524 331.907,-675.6 330.7256,-672.2723 329.151,-668.9681 327.3646,-665.7882"/>
<polygon fill="#dddddd" stroke="#dddddd" points="330.2439,-663.7937 321.9197,-657.2394 324.3397,-667.5542 330.2439,-663.7937"/>
<text text-anchor="middle" x="378.5746" y="-857.4" font-family="Times,serif" font-size="14.00" fill="#dddddd">  10.150 ms</text>
</g>
<!-- 6 -->
<g id="node7" class="node">
<title>6</title>
<ellipse fill="none" stroke="#dddddd" cx="352.907" cy="-550.8" rx="61.9718" ry="18"/>
<text text-anchor="middle" x="352.907" y="-546.6" font-family="Times,serif" font-size="14.00" fill="#dddddd">80.81.194.26</text>
</g>
<!-- host&#45;&gt;6 -->
<g id="edge10" class="edge">
<title>host-&gt;6</title>
<path fill="none" stroke="#dddddd" stroke-dasharray="1,5" d="M452.4926,-1065.4643C447.0667,-1026.2929 432.7332,-931.0293 411.907,-853.2 409.7147,-845.0072 407.8911,-843.3577 405.5718,-835.2 397.8078,-807.8917 391.907,-801.1905 391.907,-772.8 391.907,-772.8 391.907,-772.8 391.907,-639.6 391.907,-615.3224 388.0957,-608.8361 377.907,-586.8 376.3462,-583.4243 374.4702,-580.0254 372.4561,-576.7352"/>
<polygon fill="#dddddd" stroke="#dddddd" points="375.3597,-574.7807 366.9242,-568.3703 369.5209,-578.642 375.3597,-574.7807"/>
<text text-anchor="middle" x="437.5746" y="-813" font-family="Times,serif" font-size="14.00" fill="#dddddd">  26.111 ms</text>
</g>
<!-- 7 -->
<g id="node8" class="node">
<title>7</title>
<ellipse fill="none" stroke="#dddddd" cx="410.907" cy="-462" rx="66.6279" ry="18"/>
<text text-anchor="middle" x="410.907" y="-457.8" font-family="Times,serif" font-size="14.00" fill="#dddddd">64.125.30.254</text>
</g>
<!-- host&#45;&gt;7 -->
<g id="edge12" class="edge">
<title>host-&gt;7</title>
<path fill="none" stroke="#dddddd" stroke-dasharray="1,5" d="M464.3992,-1066.4872C473.1882,-1049.0147 484.907,-1020.8363 484.907,-994.8 484.907,-994.8 484.907,-994.8 484.907,-861.6 484.907,-833.1772 487.0632,-822.5844 470.907,-799.2 462.6385,-787.2322 450.5525,-793.9619 443.5718,-781.2 432.3094,-760.6104 442.907,-751.8685 442.907,-728.4 442.907,-728.4 442.907,-728.4 442.907,-550.8 442.907,-529.2932 434.4966,-506.4991 426.2992,-489.3901"/>
<polygon fill="#dddddd" stroke="#dddddd" points="429.1996,-487.3697 421.5625,-480.0262 422.9533,-490.5294 429.1996,-487.3697"/>
<text text-anchor="middle" x="475.5746" y="-768.6" font-family="Times,serif" font-size="14.00" fill="#dddddd">  25.686 ms</text>
</g>
<!-- 8 -->
<g id="node9" class="node">
<title>8</title>
<ellipse fill="none" stroke="#dddddd" cx="505.907" cy="-373.2" rx="61.9718" ry="18"/>
<text text-anchor="middle" x="505.907" y="-369" font-family="Times,serif" font-size="14.00" fill="#dddddd">64.125.29.65</text>
</g>
<!-- host&#45;&gt;8 -->
<g id="edge14" class="edge">
<title>host-&gt;8</title>
<path fill="none" stroke="#dddddd" stroke-dasharray="1,5" d="M473.8488,-1070.6223C493.9694,-1055.1363 522.907,-1027.2275 522.907,-994.8 522.907,-994.8 522.907,-994.8 522.907,-817.2 522.907,-757.5198 505.907,-743.6802 505.907,-684 505.907,-684 505.907,-684 505.907,-462 505.907,-441.7006 505.907,-418.791 505.907,-401.3264"/>
<polygon fill="#dddddd" stroke="#dddddd" points="509.4071,-401.2279 505.907,-391.2279 502.4071,-401.2279 509.4071,-401.2279"/>
<text text-anchor="middle" x="545.5746" y="-724.2" font-family="Times,serif" font-size="14.00" fill="#dddddd">  39.248 ms</text>
</g>
<!-- 9 -->
<g id="node10" class="node">
<title>9</title>
<ellipse fill="none" stroke="#dddddd" cx="586.907" cy="-284.4" rx="61.9718" ry="18"/>
<text text-anchor="middle" x="586.907" y="-280.2" font-family="Times,serif" font-size="14.00" fill="#dddddd">82.98.193.29</text>
</g>
<!-- host&#45;&gt;9 -->
<g id="edge16" class="edge">
<title>host-&gt;9</title>
<path fill="none" stroke="#dddddd" stroke-dasharray="1,5" d="M481.6548,-1079.5017C523.2985,-1071.4339 598.907,-1049.2838 598.907,-994.8 598.907,-994.8 598.907,-994.8 598.907,-772.8 598.907,-713.5933 596.907,-698.8067 596.907,-639.6 596.907,-639.6 596.907,-639.6 596.907,-373.2 596.907,-352.9008 594.2947,-330.1544 591.7404,-312.7651"/>
<polygon fill="#dddddd" stroke="#dddddd" points="595.1709,-312.0463 590.1814,-302.6999 588.2534,-313.1179 595.1709,-312.0463"/>
<text text-anchor="middle" x="629.5746" y="-679.8" font-family="Times,serif" font-size="14.00" fill="#dddddd">  26.152 ms</text>
</g>
<!-- 10 -->
<g id="node11" class="node">
<title>10</title>
<ellipse fill="none" stroke="#ff0000" cx="676.907" cy="-195.6" rx="27" ry="18"/>
<text text-anchor="middle" x="676.907" y="-191.4" font-family="Times,serif" font-size="14.00" fill="#dddddd">*</text>
</g>
<!-- host&#45;&gt;10 -->
<g id="edge18" class="edge">
<title>host-&gt;10</title>
<path fill="none" stroke="#ff0000" stroke-dasharray="1,5" d="M481.2451,-1078.8416C540.0506,-1067.4684 676.907,-1036.5182 676.907,-994.8 676.907,-994.8 676.907,-994.8 676.907,-284.4 676.907,-264.1006 676.907,-241.191 676.907,-223.7264"/>
<polygon fill="#ff0000" stroke="#ff0000" points="680.4071,-223.6279 676.907,-213.6279 673.4071,-223.6279 680.4071,-223.6279"/>
<text text-anchor="middle" x="708.4049" y="-635.4" font-family="Times,serif" font-size="14.00" fill="#dddddd">  -1.000 ms</text>
</g>
<!-- 11 -->
<g id="node12" class="node">
<title>11</title>
<ellipse fill="none" stroke="#ff0000" cx="758.907" cy="-106.8" rx="27" ry="18"/>
<text text-anchor="middle" x="758.907" y="-102.6" font-family="Times,serif" font-size="14.00" fill="#dddddd">*</text>
</g>
<!-- host&#45;&gt;11 -->
<g id="edge20" class="edge">
<title>host-&gt;11</title>
<path fill="none" stroke="#ff0000" stroke-dasharray="1,5" d="M482.1361,-1081.7314C558.2871,-1075.765 767.907,-1053.9679 767.907,-994.8 767.907,-994.8 767.907,-994.8 767.907,-195.6 767.907,-175.1966 765.5261,-152.2899 763.2134,-134.8528"/>
<polygon fill="#ff0000" stroke="#ff0000" points="766.6553,-134.1928 761.8042,-124.7738 759.7227,-135.1622 766.6553,-134.1928"/>
<text text-anchor="middle" x="799.4049" y="-591" font-family="Times,serif" font-size="14.00" fill="#dddddd">  -1.000 ms</text>
</g>
<!-- 12 -->
<g id="node13" class="node">
<title>12</title>
<ellipse fill="none" stroke="#dddddd" cx="801.907" cy="-18" rx="61.9718" ry="18"/>
<text text-anchor="middle" x="801.907" y="-13.8" font-family="Times,serif" font-size="14.00" fill="#dddddd">140.82.121.3</text>
</g>
<!-- host&#45;&gt;12 -->
<g id="edge22" class="edge">
<title>host-&gt;12</title>
<path fill="none" stroke="#dddddd" stroke-dasharray="1,5" d="M482.0961,-1082.7501C532.227,-1080.5949 642.2069,-1073.112 730.907,-1047.6 784.9566,-1032.0542 845.907,-1051.0408 845.907,-994.8 845.907,-994.8 845.907,-994.8 845.907,-106.8 845.907,-82.5224 843.0524,-75.568 831.907,-54 830.0687,-50.4426 827.8283,-46.9224 825.4085,-43.5566"/>
<polygon fill="#dddddd" stroke="#dddddd" points="828.0748,-41.2847 819.1503,-35.5748 822.5661,-45.6039 828.0748,-41.2847"/>
<text text-anchor="middle" x="878.5746" y="-546.6" font-family="Times,serif" font-size="14.00" fill="#dddddd">  25.761 ms</text>
</g>
<!-- 1&#45;&gt;2 -->
<g id="edge3" class="edge">
<title>1-&gt;2</title>
<path fill="none" stroke="#dddddd" d="M57.7935,-976.6774C59.1886,-965.5913 62.5641,-951.7195 70.5718,-942 76.7971,-934.4439 84.9812,-928.3691 93.6572,-923.5198"/>
<polygon fill="#dddddd" stroke="#dddddd" points="95.4637,-926.5287 102.8152,-918.8993 92.3105,-920.2791 95.4637,-926.5287"/>
<text text-anchor="middle" x="103.5746" y="-946.2" font-family="Times,serif" font-size="14.00" fill="#dddddd">  17.429 ms</text>
</g>
<!-- 2&#45;&gt;3 -->
<g id="edge5" class="edge">
<title>2-&gt;3</title>
<path fill="none" stroke="#dddddd" d="M146.2122,-887.5692C147.1815,-876.772 149.8263,-863.3143 156.5718,-853.2 160.2328,-847.7107 165.0435,-842.838 170.2784,-838.5897"/>
<polygon fill="#dddddd" stroke="#dddddd" points="172.721,-841.1411 178.7499,-832.4288 168.6038,-835.4799 172.721,-841.1411"/>
<text text-anchor="middle" x="188.5746" y="-857.4" font-family="Times,serif" font-size="14.00" fill="#dddddd">  23.980 ms</text>
</g>
<!-- 3&#45;&gt;4 -->
<g id="edge7" class="edge">
<title>3-&gt;4</title>
<path fill="none" stroke="#dddddd" d="M208.2817,-798.9408C208.163,-788.2044 209.5294,-774.7504 215.5718,-764.4 218.842,-758.7982 223.3695,-753.8363 228.3791,-749.524"/>
<polygon fill="#dddddd" stroke="#dddddd" points="230.7208,-752.1394 236.5371,-743.2838 226.4679,-746.5794 230.7208,-752.1394"/>
<text text-anchor="middle" x="247.5746" y="-768.6" font-family="Times,serif" font-size="14.00" fill="#dddddd">  33.983 ms</text>
</g>
<!-- 4&#45;&gt;5 -->
<g id="edge9" class="edge">
<title>4-&gt;5</title>
<path fill="none" stroke="#dddddd" d="M262.5918,-710.0092C261.5421,-699.4789 261.7083,-686.2789 266.5718,-675.6 268.6045,-671.1368 271.4876,-666.9959 274.7895,-663.2315"/>
<polygon fill="#dddddd" stroke="#dddddd" points="277.3895,-665.5821 282.0166,-656.051 272.4558,-660.6163 277.3895,-665.5821"/>
<text text-anchor="middle" x="298.5746" y="-679.8" font-family="Times,serif" font-size="14.00" fill="#dddddd">  44.133 ms</text>
</g>
<!-- 5&#45;&gt;6 -->
<g id="edge11" class="edge">
<title>5-&gt;6</title>
<path fill="none" stroke="#dddddd" d="M305.6934,-621.5665C305.7206,-610.9101 307.0959,-597.4609 312.5718,-586.8 314.8125,-582.4376 317.8189,-578.3562 321.1849,-574.623"/>
<polygon fill="#dddddd" stroke="#dddddd" points="323.7862,-576.9739 328.4694,-567.4703 318.8819,-571.9792 323.7862,-576.9739"/>
<text text-anchor="middle" x="344.5746" y="-591" font-family="Times,serif" font-size="14.00" fill="#dddddd">  70.244 ms</text>
</g>
<!-- 6&#45;&gt;7 -->
<g id="edge13" class="edge">
<title>6-&gt;7</title>
<path fill="none" stroke="#dddddd" d="M353.4217,-532.5047C354.4653,-521.7555 357.1146,-508.3007 363.5718,-498 366.5193,-493.298 370.3158,-488.9835 374.4749,-485.101"/>
<polygon fill="#dddddd" stroke="#dddddd" points="376.8301,-487.6938 382.2476,-478.5888 372.3346,-482.3282 376.8301,-487.6938"/>
<text text-anchor="middle" x="395.5746" y="-502.2" font-family="Times,serif" font-size="14.00" fill="#dddddd">  95.930 ms</text>
</g>
<!-- 7&#45;&gt;8 -->
<g id="edge15" class="edge">
<title>7-&gt;8</title>
<path fill="none" stroke="#dddddd" d="M409.6777,-443.857C409.8681,-432.7629 411.9074,-418.8901 419.5718,-409.2 426.7403,-400.1368 436.5939,-393.3306 447.0861,-388.2269"/>
<polygon fill="#dddddd" stroke="#dddddd" points="448.6461,-391.3652 456.4195,-384.1662 445.8534,-384.9464 448.6461,-391.3652"/>
<text text-anchor="middle" x="455.0746" y="-413.4" font-family="Times,serif" font-size="14.00" fill="#dddddd">  135.178 ms</text>
</g>
<!-- 8&#45;&gt;9 -->
<g id="edge17" class="edge">
<title>8-&gt;9</title>
<path fill="none" stroke="#dddddd" d="M503.2383,-355.0493C502.5988,-344.089 503.6219,-330.3625 510.5718,-320.4 516.1094,-312.462 523.8715,-306.2237 532.3415,-301.3364"/>
<polygon fill="#dddddd" stroke="#dddddd" points="534.0553,-304.391 541.3608,-296.7177 530.8646,-298.1605 534.0553,-304.391"/>
<text text-anchor="middle" x="546.0746" y="-324.6" font-family="Times,serif" font-size="14.00" fill="#dddddd">  161.330 ms</text>
</g>
<!-- 9&#45;&gt;10 -->
<g id="edge19" class="edge">
<title>9-&gt;10</title>
<path fill="none" stroke="#dddddd" d="M583.6757,-266.1728C582.7462,-255.1838 583.4995,-241.4538 590.5718,-231.6 602.1029,-215.5336 622.1998,-206.6063 640.1037,-201.6617"/>
<polygon fill="#dddddd" stroke="#dddddd" points="641.1437,-205.0108 650.0326,-199.2455 639.4885,-198.2093 641.1437,-205.0108"/>
<text text-anchor="middle" x="626.0746" y="-235.8" font-family="Times,serif" font-size="14.00" fill="#dddddd">  161.330 ms</text>
</g>
<!-- 10&#45;&gt;11 -->
<g id="edge21" class="edge">
<title>10-&gt;11</title>
<path fill="none" stroke="#dddddd" d="M674.2208,-177.437C673.5747,-166.4722 674.597,-152.7451 681.5718,-142.8 691.268,-128.9747 707.6688,-120.3232 722.8782,-114.9795"/>
<polygon fill="#dddddd" stroke="#dddddd" points="724.1243,-118.2568 732.6185,-111.9243 722.0293,-111.5776 724.1243,-118.2568"/>
<text text-anchor="middle" x="717.0746" y="-147" font-family="Times,serif" font-size="14.00" fill="#dddddd">  161.330 ms</text>
</g>
<!-- 11&#45;&gt;12 -->
<g id="edge23" class="edge">
<title>11-&gt;12</title>
<path fill="none" stroke="#dddddd" d="M755.5477,-88.8572C754.4105,-78.233 754.5027,-64.7858 759.5718,-54 761.6672,-49.5414 764.6111,-45.4291 767.9815,-41.7025"/>
<polygon fill="#dddddd" stroke="#dddddd" points="770.5793,-44.0602 775.3638,-34.6071 765.7286,-39.0133 770.5793,-44.0602"/>
<text text-anchor="middle" x="795.0746" y="-58.2" font-family="Times,serif" font-size="14.00" fill="#dddddd">  187.091 ms</text>
</g>
</g>
</svg>